<?xml version="1.0" standalone="no"?><!DOCTYPE svg PUBLIC "-//W3C//DTD SVG 1.1//EN" "http://www.w3.org/Graphics/SVG/1.1/DTD/svg11.dtd"><svg t="1686833390562" class="icon" viewBox="0 0 1024 1024" version="1.1" xmlns="http://www.w3.org/2000/svg" p-id="4496" xmlns:xlink="http://www.w3.org/1999/xlink" width="200" height="200"><path d="M96 880V272a80 80 0 0 1 80-80h672a80 80 0 0 1 80 80v608a80 80 0 0 1-80 80H176a80 80 0 0 1-80-80z m704 0a48 48 0 0 0 48-48V320a48 48 0 0 0-48-48H224a48 48 0 0 0-48 48v512a48 48 0 0 0 48 48h576z" fill="#333333" p-id="4497"></path><path d="M320 80m40 0l0 0q40 0 40 40l0 208q0 40-40 40l0 0q-40 0-40-40l0-208q0-40 40-40Z" fill="#333333" p-id="4498"></path><path d="M624 80m40 0l0 0q40 0 40 40l0 208q0 40-40 40l0 0q-40 0-40-40l0-208q0-40 40-40Z" fill="#333333" p-id="4499"></path><path d="M128 432m40 0l688 0q40 0 40 40l0 0q0 40-40 40l-688 0q-40 0-40-40l0 0q0-40 40-40Z" fill="#333333" p-id="4500"></path><path d="M661.824 650.752l-147.072 147.072a40 40 0 0 1-56.576 0c-40-40-105.376-108.448-105.376-108.448a40 40 0 1 1 56.576-56.576l78.624 78.624 117.248-117.248a40 40 0 1 1 56.576 56.576z" fill="#17abe3" p-id="4501" data-spm-anchor-id="a313x.7781069.0.i1" class="selected"></path></svg>