<?xml version="1.0" standalone="no"?><!DOCTYPE svg PUBLIC "-//W3C//DTD SVG 1.1//EN" "http://www.w3.org/Graphics/SVG/1.1/DTD/svg11.dtd"><svg t="1687935656168" class="icon" viewBox="0 0 1024 1024" version="1.1" xmlns="http://www.w3.org/2000/svg" p-id="9048" xmlns:xlink="http://www.w3.org/1999/xlink" width="200" height="200"><path d="M512 64C213.3 64 64 213.3 64 512s149.3 448 448 448 448-149.3 448-448S810.7 64 512 64z m25.6 626.8c-11.3 41.5-54.7 30.8-66.2 21.5-4.2-3.4-30.5-34.4-59.1-68.1-6 2.2-12.5 3.4-19.3 3.4h-81.5c-30.7 0-55.6-24.9-55.6-55.6V453c0-30.7 24.9-55.6 55.6-55.6H393c6.6 0 13 1.2 18.9 3.3 28-32.9 54-63 60-67.7 9.8-7.7 49.3-22.7 64.7 20.4 2.8 8 22.8 79.5 22.8 157.4 0 85.7-20.1 173.8-21.8 180zM663.3 617c-9.2 21.4-28.8 28.5-38.7 18.4-10.1-10.1-10.6-28.8-4.5-43.4 17.6-40.8 17.6-89.1 0-129.9-6.1-14.5-5.6-33.3 4.5-43.5 10-10.1 29.5-2.9 38.7 18.5 24.4 56.4 24.4 123.3 0 179.9z m89.8 34.4c-12.8 29.6-38.5 39.5-52.4 25.5-14-14 3.8-40 12.3-60.1 24.4-56.5 20.7-123.3-3.7-179.7-8.5-20.2-22.6-46.1-8.6-60.1 13.8-14 39.6-4.1 52.4 25.5 33.8 78.2 33.8 170.7 0 248.9z" fill="#ffffff" p-id="9049"></path></svg>